<svg width="255" height="255" viewBox="0 0 255 255" fill="none" xmlns="http://www.w3.org/2000/svg">
<path d="M127.5 2L238.918 64.5V189.5L127.5 252L17.0818 189.5V64.5L127.5 2Z" fill="url(#paint0_linear_4_52)"/>
<path d="M30.0818 72.0797L127.529 16.9218L225.918 72.1133V181.887L127.529 237.078L30.0818 181.92V72.0797Z" stroke="#59C8EB" stroke-width="26"/>
<path d="M25 163.5V135.5C43 58.5 156.5 182.5 215 145.5L210.5 188.5L25 163.5Z" fill="#054970"/>
<path fill-rule="evenodd" clip-rule="evenodd" d="M90.4655 2C90.759 2 93.988 3.61996 97.6572 5.68174C102.794 8.47986 104.409 10.3944 105.142 14.2234C105.729 16.727 107.344 22.4705 111.6 34.3993L130.387 40.4373C140.66 43.8245 149.907 46.9172 150.934 47.0645C152.108 47.4572 152.696 45.9354 152.696 42.4991C152.696 38.081 153.576 36.7556 159.007 33.5157C162.382 31.3066 166.052 29.2449 167.079 29.0976C167.96 28.803 172.069 30.7176 183.517 38.081V181.874H207L198.535 187.912L187.057 194.245C180.305 194.687 173.83 199.694 162.969 201.461C147.999 203.817 137.831 224.116 75.8944 225L73 23.5013L81.5126 12.7507C86.0624 6.85989 90.172 2 90.4655 2ZM115.71 82.7037C118.792 82.9982 118.939 82.5564 118.939 70.4803C118.939 58.1097 118.939 57.9624 115.269 57.9624C111.453 57.9624 111.453 57.9624 111.894 70.1858C112.334 81.5255 112.481 82.2619 115.71 82.7037ZM128.479 85.9436C128.919 85.9436 130.24 86.2381 131.414 86.68C133.175 87.269 133.616 85.3545 133.909 75.782C134.203 65.915 133.909 64.0005 131.708 63.2641C130.387 62.8223 128.919 62.3805 128.479 62.3805C128.038 62.3805 127.745 67.6822 127.745 74.1621C127.745 80.6419 128.038 85.9436 128.479 85.9436ZM144.33 89.9199C146.531 90.3617 146.825 89.0363 146.678 78.7274C146.531 68.4185 146.091 67.0931 143.449 66.3568C140.66 65.6204 140.514 66.0622 141.101 77.5493C141.541 87.5636 142.128 89.6254 144.33 89.9199ZM154.897 93.3071C156.658 93.3071 157.099 91.2453 156.805 81.9673C156.512 75.1929 155.631 70.4803 154.75 70.0385C153.576 69.744 152.989 73.2784 152.842 81.3783C152.696 91.0981 153.136 93.3071 154.897 93.3071ZM130.68 117.312C135.083 122.761 139.193 127.032 139.633 126.885C140.22 126.59 144.183 123.203 148.586 119.079L156.658 111.716C130.24 105.089 121.874 102.88 120.993 102.438C119.819 101.849 119.819 102.438 120.993 104.5C121.874 106.12 126.277 111.863 130.68 117.312ZM111.6 149.27C116.737 145.293 121.14 141.759 124.516 138.961C127.892 136.163 130.68 133.217 130.68 132.334C130.68 131.597 126.277 126.148 121.14 120.552L111.747 110.243L111.6 149.27ZM153.87 128.21C149.613 131.892 146.238 135.573 146.384 136.31C146.531 136.899 150.2 142.201 154.457 147.797L162.236 158.253C162.823 144.999 162.676 136.752 162.382 131.303L161.795 121.288L153.87 128.21ZM116.59 162.376C126.864 163.702 135.817 164.733 143.009 165.616C150.347 166.353 156.365 166.795 156.658 166.353C156.805 165.911 152.989 160.315 148.146 153.835C143.302 147.355 139.193 142.053 139.046 142.053C138.752 142.053 133.616 146.619 127.598 152.215L116.59 162.376ZM129.066 197.279L139.486 207.588L158.126 186.97C143.009 185.498 134.203 185.056 128.772 184.909C123.195 184.909 118.792 185.203 118.792 185.792C118.792 186.529 123.489 191.536 129.066 197.279ZM112.187 192.33C112.628 192.33 117.177 188.796 122.314 184.525L131.708 176.867C117.765 161.109 113.215 193.009 112.774 192.567C112.187 192.272 111.747 163.613 111.6 173.774C111.6 183.936 111.747 192.33 112.187 192.33ZM145.21 179.076C152.402 189.09 152.842 189.238 157.392 187.912C159.887 187.029 162.236 186.145 162.529 185.998C162.676 185.85 162.529 216.424 162.236 209.208L161.795 195.954L145.21 179.076ZM129.8 194.245C137.725 192.772 140.66 192.33 141.541 192.478C142.275 192.478 141.981 191.447 140.807 190.121C139.633 188.943 138.312 187.912 137.872 187.912C137.432 188.06 135.524 189.532 133.469 191.152L129.8 194.245Z" fill="#EAC157"/>
<path d="M115.118 200.789L141.865 200.789V225H115.407L115.118 200.789Z" fill="#EAC157"/>
<path d="M41.5 191L30.5 174C30.5 174 42.329 162.981 49.5 164.607C75.5 170.5 104 179 131.5 170.5C159 162 184.5 156 216 178.5L221.5 187L182 216L121.5 234.5L41.5 191Z" fill="#116DA0"/>
<path d="M43.0818 79.6594V174.341L127.558 222.156L212.918 174.273V79.7266L238.918 64.5V189.5L127.5 252L17.0818 189.5V64.5L43.0818 79.6594Z" fill="#59C8EB"/>
<defs>
<linearGradient id="paint0_linear_4_52" x1="128" y1="2" x2="128" y2="252" gradientUnits="userSpaceOnUse">
<stop offset="1" stop-color="#008FDF"/>
</linearGradient>
</defs>
</svg>
